<mxfile host="app.diagrams.net" modified="2023-11-16T14:41:18.383Z" agent="Mozilla/5.0 (Windows NT 10.0; Win64; x64; rv:109.0) Gecko/20100101 Firefox/119.0" etag="CpBXQnxv2J_1hVXWeYcz" version="22.1.2" type="google">
  <diagram id="kgpKYQtTHZ0yAKxKKP6v" name="Page-1">
    <mxGraphModel grid="1" page="1" gridSize="10" guides="1" tooltips="1" connect="1" arrows="1" fold="1" pageScale="1" pageWidth="850" pageHeight="1100" math="0" shadow="0">
      <root>
        <mxCell id="0" />
        <mxCell id="1" parent="0" />
        <mxCell id="EzGrtceAvdTFib9RZmbs-10" value="" style="rounded=1;whiteSpace=wrap;html=1;absoluteArcSize=1;arcSize=14;strokeWidth=2;" vertex="1" parent="1">
          <mxGeometry x="20" y="270" width="1550" height="520" as="geometry" />
        </mxCell>
        <mxCell id="EzGrtceAvdTFib9RZmbs-23" style="edgeStyle=orthogonalEdgeStyle;rounded=0;orthogonalLoop=1;jettySize=auto;html=1;" edge="1" parent="1" source="EzGrtceAvdTFib9RZmbs-11" target="EzGrtceAvdTFib9RZmbs-14">
          <mxGeometry relative="1" as="geometry" />
        </mxCell>
        <mxCell id="EzGrtceAvdTFib9RZmbs-11" value="Get ideas" style="rounded=0;whiteSpace=wrap;html=1;" vertex="1" parent="1">
          <mxGeometry x="60" y="470" width="120" height="60" as="geometry" />
        </mxCell>
        <mxCell id="EzGrtceAvdTFib9RZmbs-12" value="1" style="rounded=0;whiteSpace=wrap;html=1;" vertex="1" parent="1">
          <mxGeometry x="60" y="530" width="60" height="20" as="geometry" />
        </mxCell>
        <mxCell id="EzGrtceAvdTFib9RZmbs-13" value="" style="rounded=0;whiteSpace=wrap;html=1;" vertex="1" parent="1">
          <mxGeometry x="120" y="530" width="60" height="20" as="geometry" />
        </mxCell>
        <mxCell id="EzGrtceAvdTFib9RZmbs-24" style="edgeStyle=orthogonalEdgeStyle;rounded=0;orthogonalLoop=1;jettySize=auto;html=1;" edge="1" parent="1" source="EzGrtceAvdTFib9RZmbs-14" target="EzGrtceAvdTFib9RZmbs-17">
          <mxGeometry relative="1" as="geometry" />
        </mxCell>
        <mxCell id="EzGrtceAvdTFib9RZmbs-14" value="Make a maquette of app project" style="rounded=0;whiteSpace=wrap;html=1;" vertex="1" parent="1">
          <mxGeometry x="260" y="470" width="120" height="60" as="geometry" />
        </mxCell>
        <mxCell id="EzGrtceAvdTFib9RZmbs-15" value="2" style="rounded=0;whiteSpace=wrap;html=1;" vertex="1" parent="1">
          <mxGeometry x="260" y="530" width="60" height="20" as="geometry" />
        </mxCell>
        <mxCell id="EzGrtceAvdTFib9RZmbs-16" value="" style="rounded=0;whiteSpace=wrap;html=1;" vertex="1" parent="1">
          <mxGeometry x="320" y="530" width="60" height="20" as="geometry" />
        </mxCell>
        <mxCell id="EzGrtceAvdTFib9RZmbs-17" value="Present the project" style="rounded=0;whiteSpace=wrap;html=1;" vertex="1" parent="1">
          <mxGeometry x="490" y="470" width="120" height="60" as="geometry" />
        </mxCell>
        <mxCell id="EzGrtceAvdTFib9RZmbs-18" value="3" style="rounded=0;whiteSpace=wrap;html=1;" vertex="1" parent="1">
          <mxGeometry x="490" y="530" width="60" height="20" as="geometry" />
        </mxCell>
        <mxCell id="EzGrtceAvdTFib9RZmbs-19" value="" style="rounded=0;whiteSpace=wrap;html=1;" vertex="1" parent="1">
          <mxGeometry x="550" y="530" width="60" height="20" as="geometry" />
        </mxCell>
        <mxCell id="EzGrtceAvdTFib9RZmbs-30" style="edgeStyle=orthogonalEdgeStyle;rounded=0;orthogonalLoop=1;jettySize=auto;html=1;entryX=0.5;entryY=0;entryDx=0;entryDy=0;exitX=0.5;exitY=0;exitDx=0;exitDy=0;" edge="1" parent="1" source="EzGrtceAvdTFib9RZmbs-20" target="EzGrtceAvdTFib9RZmbs-11">
          <mxGeometry relative="1" as="geometry" />
        </mxCell>
        <mxCell id="EzGrtceAvdTFib9RZmbs-20" value="Want more ideas" style="rounded=0;whiteSpace=wrap;html=1;" vertex="1" parent="1">
          <mxGeometry x="1000" y="330" width="120" height="60" as="geometry" />
        </mxCell>
        <mxCell id="EzGrtceAvdTFib9RZmbs-21" value="4" style="rounded=0;whiteSpace=wrap;html=1;" vertex="1" parent="1">
          <mxGeometry x="1000" y="390" width="60" height="20" as="geometry" />
        </mxCell>
        <mxCell id="EzGrtceAvdTFib9RZmbs-22" value="" style="rounded=0;whiteSpace=wrap;html=1;" vertex="1" parent="1">
          <mxGeometry x="1060" y="390" width="60" height="20" as="geometry" />
        </mxCell>
        <mxCell id="EzGrtceAvdTFib9RZmbs-28" style="edgeStyle=orthogonalEdgeStyle;rounded=0;orthogonalLoop=1;jettySize=auto;html=1;entryX=0;entryY=0.5;entryDx=0;entryDy=0;" edge="1" parent="1" source="EzGrtceAvdTFib9RZmbs-26" target="EzGrtceAvdTFib9RZmbs-20">
          <mxGeometry relative="1" as="geometry" />
        </mxCell>
        <mxCell id="EzGrtceAvdTFib9RZmbs-39" style="edgeStyle=orthogonalEdgeStyle;rounded=0;orthogonalLoop=1;jettySize=auto;html=1;entryX=0;entryY=0.5;entryDx=0;entryDy=0;" edge="1" parent="1" source="EzGrtceAvdTFib9RZmbs-26" target="EzGrtceAvdTFib9RZmbs-36">
          <mxGeometry relative="1" as="geometry" />
        </mxCell>
        <mxCell id="EzGrtceAvdTFib9RZmbs-26" value="vote of organisation members " style="rounded=0;whiteSpace=wrap;html=1;" vertex="1" parent="1">
          <mxGeometry x="730" y="470" width="120" height="80" as="geometry" />
        </mxCell>
        <mxCell id="EzGrtceAvdTFib9RZmbs-31" value="" style="rounded=0;whiteSpace=wrap;html=1;" vertex="1" parent="1">
          <mxGeometry x="710" y="470" width="20" height="80" as="geometry" />
        </mxCell>
        <mxCell id="EzGrtceAvdTFib9RZmbs-32" style="edgeStyle=orthogonalEdgeStyle;rounded=0;orthogonalLoop=1;jettySize=auto;html=1;" edge="1" parent="1" source="EzGrtceAvdTFib9RZmbs-17">
          <mxGeometry relative="1" as="geometry">
            <mxPoint x="710" y="500" as="targetPoint" />
          </mxGeometry>
        </mxCell>
        <mxCell id="EzGrtceAvdTFib9RZmbs-45" style="edgeStyle=orthogonalEdgeStyle;rounded=0;orthogonalLoop=1;jettySize=auto;html=1;" edge="1" parent="1" source="EzGrtceAvdTFib9RZmbs-36" target="EzGrtceAvdTFib9RZmbs-40">
          <mxGeometry relative="1" as="geometry" />
        </mxCell>
        <mxCell id="EzGrtceAvdTFib9RZmbs-36" value="add the necessaries ressources" style="rounded=0;whiteSpace=wrap;html=1;" vertex="1" parent="1">
          <mxGeometry x="1000" y="600" width="120" height="60" as="geometry" />
        </mxCell>
        <mxCell id="EzGrtceAvdTFib9RZmbs-37" value="5.0" style="rounded=0;whiteSpace=wrap;html=1;" vertex="1" parent="1">
          <mxGeometry x="1000" y="660" width="60" height="20" as="geometry" />
        </mxCell>
        <mxCell id="EzGrtceAvdTFib9RZmbs-38" value="" style="rounded=0;whiteSpace=wrap;html=1;" vertex="1" parent="1">
          <mxGeometry x="1060" y="660" width="60" height="20" as="geometry" />
        </mxCell>
        <mxCell id="EzGrtceAvdTFib9RZmbs-40" value="Develop app" style="rounded=0;whiteSpace=wrap;html=1;" vertex="1" parent="1">
          <mxGeometry x="1250" y="600" width="125" height="60" as="geometry" />
        </mxCell>
        <mxCell id="EzGrtceAvdTFib9RZmbs-43" value="5.1" style="rounded=0;whiteSpace=wrap;html=1;" vertex="1" parent="1">
          <mxGeometry x="1250" y="660" width="65" height="20" as="geometry" />
        </mxCell>
        <mxCell id="EzGrtceAvdTFib9RZmbs-44" value="" style="rounded=0;whiteSpace=wrap;html=1;" vertex="1" parent="1">
          <mxGeometry x="1315" y="660" width="60" height="20" as="geometry" />
        </mxCell>
        <mxCell id="EzGrtceAvdTFib9RZmbs-48" style="edgeStyle=orthogonalEdgeStyle;rounded=0;orthogonalLoop=1;jettySize=auto;html=1;entryX=0.042;entryY=0.515;entryDx=0;entryDy=0;entryPerimeter=0;" edge="1" parent="1" source="EzGrtceAvdTFib9RZmbs-40">
          <mxGeometry relative="1" as="geometry">
            <mxPoint x="1495.04" y="630.9" as="targetPoint" />
            <Array as="points">
              <mxPoint x="1440" y="630" />
            </Array>
          </mxGeometry>
        </mxCell>
        <mxCell id="EzGrtceAvdTFib9RZmbs-49" value="Application" style="edgeLabel;html=1;align=center;verticalAlign=middle;resizable=0;points=[];" connectable="0" vertex="1" parent="EzGrtceAvdTFib9RZmbs-48">
          <mxGeometry x="0.7796" y="-1" relative="1" as="geometry">
            <mxPoint x="-32" y="-12" as="offset" />
          </mxGeometry>
        </mxCell>
      </root>
    </mxGraphModel>
  </diagram>
</mxfile>
